<mxfile host="app.diagrams.net" modified="2022-05-10T05:15:15.563Z" agent="5.0 (Macintosh; Intel Mac OS X 10_15_7) AppleWebKit/537.36 (KHTML, like Gecko) Chrome/99.0.4844.84 Safari/537.36" etag="MQY6Mlea5oLfVuxXZe5K" version="17.4.6" type="github">
  <diagram id="kgpKYQtTHZ0yAKxKKP6v" name="Page-1">
    <mxGraphModel dx="1130" dy="687" grid="1" gridSize="10" guides="1" tooltips="1" connect="1" arrows="1" fold="1" page="1" pageScale="1" pageWidth="850" pageHeight="1100" math="0" shadow="0">
      <root>
        <mxCell id="0" />
        <mxCell id="1" parent="0" />
        <mxCell id="3nuBFxr9cyL0pnOWT2aG-1" value="ユーザ" style="shape=umlLifeline;perimeter=lifelinePerimeter;container=1;collapsible=0;recursiveResize=0;rounded=0;shadow=0;strokeWidth=1;" parent="1" vertex="1">
          <mxGeometry x="40" y="80" width="80" height="800" as="geometry" />
        </mxCell>
        <mxCell id="3nuBFxr9cyL0pnOWT2aG-2" value="" style="points=[];perimeter=orthogonalPerimeter;rounded=0;shadow=0;strokeWidth=1;" parent="3nuBFxr9cyL0pnOWT2aG-1" vertex="1">
          <mxGeometry x="35" y="80" width="10" height="650" as="geometry" />
        </mxCell>
        <mxCell id="lYFfkbvWak5rd_vfTRGr-72" value="&lt;font color=&quot;#ff0000&quot;&gt;ユーザ未認証&lt;/font&gt;" style="text;html=1;resizable=0;autosize=1;align=center;verticalAlign=middle;points=[];fillColor=none;strokeColor=none;rounded=0;shadow=0;" vertex="1" parent="3nuBFxr9cyL0pnOWT2aG-1">
          <mxGeometry x="-30" y="405" width="90" height="20" as="geometry" />
        </mxCell>
        <mxCell id="lYFfkbvWak5rd_vfTRGr-70" value="&lt;font color=&quot;#ff0000&quot;&gt;opt&lt;/font&gt;" style="shape=umlFrame;whiteSpace=wrap;html=1;strokeColor=#FF0000;shadow=0;" vertex="1" parent="3nuBFxr9cyL0pnOWT2aG-1">
          <mxGeometry x="-30" y="375" width="210" height="50" as="geometry" />
        </mxCell>
        <mxCell id="3nuBFxr9cyL0pnOWT2aG-5" value=":middleware" style="shape=umlLifeline;perimeter=lifelinePerimeter;container=1;collapsible=0;recursiveResize=0;rounded=0;shadow=0;strokeWidth=1;" parent="1" vertex="1">
          <mxGeometry x="160" y="80" width="80" height="800" as="geometry" />
        </mxCell>
        <mxCell id="lYFfkbvWak5rd_vfTRGr-58" value="" style="points=[];perimeter=orthogonalPerimeter;rounded=0;shadow=0;strokeWidth=1;" vertex="1" parent="3nuBFxr9cyL0pnOWT2aG-5">
          <mxGeometry x="35" y="350" width="10" height="100" as="geometry" />
        </mxCell>
        <mxCell id="3nuBFxr9cyL0pnOWT2aG-6" value="" style="points=[];perimeter=orthogonalPerimeter;rounded=0;shadow=0;strokeWidth=1;" parent="3nuBFxr9cyL0pnOWT2aG-5" vertex="1">
          <mxGeometry x="35" y="80" width="10" height="130" as="geometry" />
        </mxCell>
        <mxCell id="lYFfkbvWak5rd_vfTRGr-43" value="&lt;font color=&quot;#ff0000&quot;&gt;opt&lt;/font&gt;" style="shape=umlFrame;whiteSpace=wrap;html=1;fillColor=#FFFFFF;strokeColor=#FF0000;" vertex="1" parent="3nuBFxr9cyL0pnOWT2aG-5">
          <mxGeometry x="-150" y="210" width="330" height="50" as="geometry" />
        </mxCell>
        <mxCell id="lYFfkbvWak5rd_vfTRGr-42" value="&lt;font color=&quot;#ff0000&quot;&gt;opt&lt;/font&gt;" style="shape=umlFrame;whiteSpace=wrap;html=1;strokeColor=#FF0000;shadow=0;" vertex="1" parent="3nuBFxr9cyL0pnOWT2aG-5">
          <mxGeometry x="-150" y="130" width="210" height="50" as="geometry" />
        </mxCell>
        <mxCell id="lYFfkbvWak5rd_vfTRGr-46" value="バリデーションエラー" style="text;html=1;resizable=0;autosize=1;align=center;verticalAlign=middle;points=[];fillColor=none;strokeColor=none;rounded=0;shadow=0;fontFamily=Helvetica;fontSize=12;fontColor=#FF0000;" vertex="1" parent="3nuBFxr9cyL0pnOWT2aG-5">
          <mxGeometry x="-70" y="220" width="140" height="20" as="geometry" />
        </mxCell>
        <mxCell id="lYFfkbvWak5rd_vfTRGr-53" value="バリデーションエラー" style="text;html=1;resizable=0;autosize=1;align=center;verticalAlign=middle;points=[];fillColor=none;strokeColor=none;rounded=0;shadow=0;fontFamily=Helvetica;fontSize=12;fontColor=#FF0000;" vertex="1" parent="3nuBFxr9cyL0pnOWT2aG-5">
          <mxGeometry x="-80" y="460" width="140" height="20" as="geometry" />
        </mxCell>
        <mxCell id="lYFfkbvWak5rd_vfTRGr-55" value="" style="points=[];perimeter=orthogonalPerimeter;rounded=0;shadow=0;strokeWidth=1;" vertex="1" parent="3nuBFxr9cyL0pnOWT2aG-5">
          <mxGeometry x="155" y="430" width="10" height="100" as="geometry" />
        </mxCell>
        <mxCell id="lYFfkbvWak5rd_vfTRGr-64" value="" style="endArrow=classic;html=1;rounded=0;fontFamily=Helvetica;fontSize=12;fontColor=#FF0000;strokeColor=#000000;exitX=1.024;exitY=0.43;exitDx=0;exitDy=0;exitPerimeter=0;" edge="1" parent="3nuBFxr9cyL0pnOWT2aG-5" source="3nuBFxr9cyL0pnOWT2aG-2">
          <mxGeometry width="50" height="50" relative="1" as="geometry">
            <mxPoint x="-70" y="360" as="sourcePoint" />
            <mxPoint x="35" y="360" as="targetPoint" />
          </mxGeometry>
        </mxCell>
        <mxCell id="lYFfkbvWak5rd_vfTRGr-68" value="" style="verticalAlign=bottom;endArrow=open;dashed=1;endSize=8;shadow=0;strokeWidth=1;entryX=-0.043;entryY=0.96;entryDx=0;entryDy=0;entryPerimeter=0;" edge="1" parent="3nuBFxr9cyL0pnOWT2aG-5" target="lYFfkbvWak5rd_vfTRGr-69">
          <mxGeometry x="0.2381" y="240" relative="1" as="geometry">
            <mxPoint x="-80" y="400" as="targetPoint" />
            <mxPoint x="35" y="399.52" as="sourcePoint" />
            <Array as="points">
              <mxPoint x="20" y="399.52" />
              <mxPoint x="-40" y="399.52" />
            </Array>
            <mxPoint as="offset" />
          </mxGeometry>
        </mxCell>
        <mxCell id="lYFfkbvWak5rd_vfTRGr-50" value="Request" style="verticalAlign=bottom;endArrow=block;shadow=0;strokeWidth=1;exitX=0.929;exitY=0.892;exitDx=0;exitDy=0;exitPerimeter=0;" edge="1" parent="3nuBFxr9cyL0pnOWT2aG-5" source="lYFfkbvWak5rd_vfTRGr-58" target="lYFfkbvWak5rd_vfTRGr-55">
          <mxGeometry x="0.0476" relative="1" as="geometry">
            <mxPoint x="50" y="478" as="sourcePoint" />
            <mxPoint x="150" y="400" as="targetPoint" />
            <Array as="points">
              <mxPoint x="120" y="440" />
            </Array>
            <mxPoint as="offset" />
          </mxGeometry>
        </mxCell>
        <mxCell id="lYFfkbvWak5rd_vfTRGr-52" value="&lt;font color=&quot;#ff0000&quot;&gt;opt&lt;/font&gt;" style="shape=umlFrame;whiteSpace=wrap;html=1;fillColor=#FFFFFF;strokeColor=#FF0000;" vertex="1" parent="3nuBFxr9cyL0pnOWT2aG-5">
          <mxGeometry x="-150" y="450" width="330" height="50" as="geometry" />
        </mxCell>
        <mxCell id="3nuBFxr9cyL0pnOWT2aG-7" value="ログイン画面表示&#xa;" style="verticalAlign=bottom;endArrow=open;dashed=1;endSize=8;shadow=0;strokeWidth=1;" parent="1" source="3nuBFxr9cyL0pnOWT2aG-6" edge="1">
          <mxGeometry x="-0.0909" y="10" relative="1" as="geometry">
            <mxPoint x="90" y="240" as="targetPoint" />
            <mxPoint x="190" y="220" as="sourcePoint" />
            <Array as="points">
              <mxPoint x="180" y="240" />
              <mxPoint x="120" y="240" />
            </Array>
            <mxPoint as="offset" />
          </mxGeometry>
        </mxCell>
        <mxCell id="3nuBFxr9cyL0pnOWT2aG-8" value="ボタン押下" style="verticalAlign=bottom;endArrow=block;shadow=0;strokeWidth=1;" parent="1" source="3nuBFxr9cyL0pnOWT2aG-2" edge="1">
          <mxGeometry relative="1" as="geometry">
            <mxPoint x="275" y="160" as="sourcePoint" />
            <mxPoint x="190" y="200" as="targetPoint" />
            <Array as="points">
              <mxPoint x="120" y="200" />
              <mxPoint x="170" y="200" />
            </Array>
          </mxGeometry>
        </mxCell>
        <mxCell id="lYFfkbvWak5rd_vfTRGr-2" value="&lt;font style=&quot;vertical-align: inherit&quot;&gt;&lt;font style=&quot;vertical-align: inherit&quot;&gt;:FormRequest&lt;/font&gt;&lt;/font&gt;" style="rounded=0;whiteSpace=wrap;html=1;" vertex="1" parent="1">
          <mxGeometry x="280" y="80" width="80" height="40" as="geometry" />
        </mxCell>
        <mxCell id="lYFfkbvWak5rd_vfTRGr-3" value="&lt;font style=&quot;vertical-align: inherit&quot;&gt;&lt;font style=&quot;vertical-align: inherit&quot;&gt;:Controller&lt;/font&gt;&lt;/font&gt;" style="rounded=0;whiteSpace=wrap;html=1;" vertex="1" parent="1">
          <mxGeometry x="400" y="80" width="80" height="40" as="geometry" />
        </mxCell>
        <mxCell id="lYFfkbvWak5rd_vfTRGr-5" value="&lt;font style=&quot;vertical-align: inherit&quot;&gt;&lt;font style=&quot;vertical-align: inherit&quot;&gt;:Model&lt;/font&gt;&lt;/font&gt;" style="whiteSpace=wrap;html=1;rounded=0;" vertex="1" parent="1">
          <mxGeometry x="520" y="80" width="80" height="40" as="geometry" />
        </mxCell>
        <mxCell id="lYFfkbvWak5rd_vfTRGr-8" value="&lt;font style=&quot;vertical-align: inherit&quot;&gt;&lt;font style=&quot;vertical-align: inherit&quot;&gt;DB&lt;/font&gt;&lt;/font&gt;" style="whiteSpace=wrap;html=1;rounded=0;" vertex="1" parent="1">
          <mxGeometry x="640" y="80" width="80" height="40" as="geometry" />
        </mxCell>
        <mxCell id="lYFfkbvWak5rd_vfTRGr-10" value="" style="endArrow=none;dashed=1;html=1;rounded=0;entryX=0.5;entryY=1;entryDx=0;entryDy=0;startArrow=none;" edge="1" parent="1" source="lYFfkbvWak5rd_vfTRGr-55" target="lYFfkbvWak5rd_vfTRGr-2">
          <mxGeometry width="50" height="50" relative="1" as="geometry">
            <mxPoint x="320" y="720" as="sourcePoint" />
            <mxPoint x="240" y="320" as="targetPoint" />
          </mxGeometry>
        </mxCell>
        <mxCell id="lYFfkbvWak5rd_vfTRGr-11" value="" style="endArrow=none;dashed=1;html=1;rounded=0;entryX=0.5;entryY=1;entryDx=0;entryDy=0;startArrow=none;" edge="1" parent="1" source="lYFfkbvWak5rd_vfTRGr-29" target="lYFfkbvWak5rd_vfTRGr-5">
          <mxGeometry width="50" height="50" relative="1" as="geometry">
            <mxPoint x="560" y="640" as="sourcePoint" />
            <mxPoint x="559.5" y="200" as="targetPoint" />
          </mxGeometry>
        </mxCell>
        <mxCell id="lYFfkbvWak5rd_vfTRGr-12" value="" style="endArrow=none;dashed=1;html=1;rounded=0;entryX=0.5;entryY=1;entryDx=0;entryDy=0;startArrow=none;" edge="1" parent="1" source="lYFfkbvWak5rd_vfTRGr-73" target="lYFfkbvWak5rd_vfTRGr-3">
          <mxGeometry width="50" height="50" relative="1" as="geometry">
            <mxPoint x="440" y="880" as="sourcePoint" />
            <mxPoint x="439.5" y="200" as="targetPoint" />
          </mxGeometry>
        </mxCell>
        <mxCell id="lYFfkbvWak5rd_vfTRGr-13" value="" style="endArrow=none;dashed=1;html=1;rounded=0;entryX=0.5;entryY=1;entryDx=0;entryDy=0;startArrow=none;" edge="1" parent="1" source="lYFfkbvWak5rd_vfTRGr-31">
          <mxGeometry width="50" height="50" relative="1" as="geometry">
            <mxPoint x="680" y="640" as="sourcePoint" />
            <mxPoint x="679.5" y="120" as="targetPoint" />
          </mxGeometry>
        </mxCell>
        <mxCell id="lYFfkbvWak5rd_vfTRGr-19" value="" style="verticalAlign=bottom;endArrow=open;dashed=1;endSize=8;exitX=0;exitY=0.95;shadow=0;strokeWidth=1;" edge="1" parent="1">
          <mxGeometry x="0.3778" relative="1" as="geometry">
            <mxPoint x="90" y="319.52" as="targetPoint" />
            <mxPoint x="315" y="319.51999999999975" as="sourcePoint" />
            <mxPoint as="offset" />
          </mxGeometry>
        </mxCell>
        <mxCell id="lYFfkbvWak5rd_vfTRGr-24" value="Request" style="verticalAlign=bottom;endArrow=block;shadow=0;strokeWidth=1;exitX=0.9;exitY=0.927;exitDx=0;exitDy=0;exitPerimeter=0;" edge="1" parent="1" source="3nuBFxr9cyL0pnOWT2aG-6">
          <mxGeometry x="0.0476" relative="1" as="geometry">
            <mxPoint x="210" y="280" as="sourcePoint" />
            <mxPoint x="310" y="280" as="targetPoint" />
            <Array as="points" />
            <mxPoint as="offset" />
          </mxGeometry>
        </mxCell>
        <mxCell id="lYFfkbvWak5rd_vfTRGr-25" value="" style="points=[];perimeter=orthogonalPerimeter;rounded=0;shadow=0;strokeWidth=1;" vertex="1" parent="1">
          <mxGeometry x="315" y="270" width="10" height="100" as="geometry" />
        </mxCell>
        <mxCell id="lYFfkbvWak5rd_vfTRGr-26" value="Request" style="verticalAlign=bottom;endArrow=block;shadow=0;strokeWidth=1;exitX=1;exitY=0.905;exitDx=0;exitDy=0;exitPerimeter=0;" edge="1" parent="1" source="lYFfkbvWak5rd_vfTRGr-25">
          <mxGeometry x="0.0476" relative="1" as="geometry">
            <mxPoint x="350" y="360" as="sourcePoint" />
            <mxPoint x="430" y="360" as="targetPoint" />
            <Array as="points">
              <mxPoint x="410" y="360" />
            </Array>
            <mxPoint as="offset" />
          </mxGeometry>
        </mxCell>
        <mxCell id="lYFfkbvWak5rd_vfTRGr-27" value="" style="points=[];perimeter=orthogonalPerimeter;rounded=0;shadow=0;strokeWidth=1;" vertex="1" parent="1">
          <mxGeometry x="435" y="350" width="10" height="60" as="geometry" />
        </mxCell>
        <mxCell id="lYFfkbvWak5rd_vfTRGr-30" value="更新処理" style="verticalAlign=bottom;endArrow=block;shadow=0;strokeWidth=1;" edge="1" parent="1">
          <mxGeometry x="0.0476" relative="1" as="geometry">
            <mxPoint x="445" y="640" as="sourcePoint" />
            <mxPoint x="550" y="640" as="targetPoint" />
            <Array as="points">
              <mxPoint x="525" y="640" />
            </Array>
            <mxPoint as="offset" />
          </mxGeometry>
        </mxCell>
        <mxCell id="lYFfkbvWak5rd_vfTRGr-33" value="SQL発行" style="verticalAlign=bottom;endArrow=block;shadow=0;strokeWidth=1;" edge="1" parent="1">
          <mxGeometry x="0.0377" relative="1" as="geometry">
            <mxPoint x="565" y="679.52" as="sourcePoint" />
            <mxPoint x="670" y="680" as="targetPoint" />
            <Array as="points">
              <mxPoint x="605" y="679.52" />
            </Array>
            <mxPoint y="1" as="offset" />
          </mxGeometry>
        </mxCell>
        <mxCell id="lYFfkbvWak5rd_vfTRGr-34" value="RedirectResponce" style="verticalAlign=bottom;endArrow=open;dashed=1;endSize=8;shadow=0;strokeWidth=1;exitX=0.071;exitY=0.951;exitDx=0;exitDy=0;exitPerimeter=0;" edge="1" parent="1" source="lYFfkbvWak5rd_vfTRGr-73">
          <mxGeometry x="0.6522" relative="1" as="geometry">
            <mxPoint x="90" y="800" as="targetPoint" />
            <mxPoint x="430" y="720" as="sourcePoint" />
            <mxPoint as="offset" />
            <Array as="points">
              <mxPoint x="230" y="800" />
              <mxPoint x="150" y="800" />
            </Array>
          </mxGeometry>
        </mxCell>
        <mxCell id="lYFfkbvWak5rd_vfTRGr-29" value="" style="points=[];perimeter=orthogonalPerimeter;rounded=0;shadow=0;strokeWidth=1;" vertex="1" parent="1">
          <mxGeometry x="555" y="630" width="10" height="140" as="geometry" />
        </mxCell>
        <mxCell id="lYFfkbvWak5rd_vfTRGr-36" value="" style="endArrow=none;dashed=1;html=1;rounded=0;" edge="1" parent="1" target="lYFfkbvWak5rd_vfTRGr-29">
          <mxGeometry width="50" height="50" relative="1" as="geometry">
            <mxPoint x="560" y="880" as="sourcePoint" />
            <mxPoint x="560" y="120" as="targetPoint" />
          </mxGeometry>
        </mxCell>
        <mxCell id="lYFfkbvWak5rd_vfTRGr-31" value="" style="points=[];perimeter=orthogonalPerimeter;rounded=0;shadow=0;strokeWidth=1;" vertex="1" parent="1">
          <mxGeometry x="675" y="670" width="10" height="60" as="geometry" />
        </mxCell>
        <mxCell id="lYFfkbvWak5rd_vfTRGr-37" value="" style="endArrow=none;dashed=1;html=1;rounded=0;entryX=0.5;entryY=1;entryDx=0;entryDy=0;startArrow=none;" edge="1" parent="1" target="lYFfkbvWak5rd_vfTRGr-31">
          <mxGeometry width="50" height="50" relative="1" as="geometry">
            <mxPoint x="680" y="880" as="sourcePoint" />
            <mxPoint x="679.5" y="120" as="targetPoint" />
          </mxGeometry>
        </mxCell>
        <mxCell id="lYFfkbvWak5rd_vfTRGr-38" value="SQL実行後" style="verticalAlign=bottom;endArrow=open;dashed=1;endSize=8;shadow=0;strokeWidth=1;exitX=-0.119;exitY=0.828;exitDx=0;exitDy=0;exitPerimeter=0;" edge="1" parent="1" source="lYFfkbvWak5rd_vfTRGr-31" target="lYFfkbvWak5rd_vfTRGr-29">
          <mxGeometry x="0.0476" relative="1" as="geometry">
            <mxPoint x="570" y="680" as="targetPoint" />
            <mxPoint x="670" y="520" as="sourcePoint" />
            <mxPoint as="offset" />
            <Array as="points" />
          </mxGeometry>
        </mxCell>
        <mxCell id="lYFfkbvWak5rd_vfTRGr-39" value="取得レコードの返却" style="verticalAlign=bottom;endArrow=open;dashed=1;endSize=8;exitX=0;exitY=0.344;shadow=0;strokeWidth=1;exitDx=0;exitDy=0;exitPerimeter=0;" edge="1" parent="1">
          <mxGeometry x="0.0476" relative="1" as="geometry">
            <mxPoint x="450" y="760" as="targetPoint" />
            <mxPoint x="555" y="760.44" as="sourcePoint" />
            <mxPoint as="offset" />
          </mxGeometry>
        </mxCell>
        <mxCell id="lYFfkbvWak5rd_vfTRGr-44" value="&lt;font color=&quot;#ff0000&quot;&gt;ユーザ未認証&lt;/font&gt;" style="text;html=1;resizable=0;autosize=1;align=center;verticalAlign=middle;points=[];fillColor=none;strokeColor=none;rounded=0;shadow=0;" vertex="1" parent="1">
          <mxGeometry x="10" y="240" width="90" height="20" as="geometry" />
        </mxCell>
        <mxCell id="lYFfkbvWak5rd_vfTRGr-17" value="確認画面表示" style="verticalAlign=bottom;endArrow=open;dashed=1;endSize=8;exitX=0;exitY=0.95;shadow=0;strokeWidth=1;" edge="1" parent="1">
          <mxGeometry x="0.7101" relative="1" as="geometry">
            <mxPoint x="90" y="400" as="targetPoint" />
            <mxPoint x="435" y="399.9999999999998" as="sourcePoint" />
            <mxPoint as="offset" />
          </mxGeometry>
        </mxCell>
        <mxCell id="lYFfkbvWak5rd_vfTRGr-56" value="" style="endArrow=none;dashed=1;html=1;rounded=0;entryX=0.5;entryY=1;entryDx=0;entryDy=0;" edge="1" parent="1" target="lYFfkbvWak5rd_vfTRGr-55">
          <mxGeometry width="50" height="50" relative="1" as="geometry">
            <mxPoint x="320" y="880" as="sourcePoint" />
            <mxPoint x="320" y="120" as="targetPoint" />
          </mxGeometry>
        </mxCell>
        <mxCell id="lYFfkbvWak5rd_vfTRGr-57" value="Request" style="verticalAlign=bottom;endArrow=block;shadow=0;strokeWidth=1;exitX=1;exitY=0.905;exitDx=0;exitDy=0;exitPerimeter=0;" edge="1" parent="1">
          <mxGeometry x="0.0476" relative="1" as="geometry">
            <mxPoint x="325" y="600.5" as="sourcePoint" />
            <mxPoint x="430" y="600" as="targetPoint" />
            <Array as="points">
              <mxPoint x="410" y="600" />
            </Array>
            <mxPoint as="offset" />
          </mxGeometry>
        </mxCell>
        <mxCell id="lYFfkbvWak5rd_vfTRGr-51" value="" style="verticalAlign=bottom;endArrow=open;dashed=1;endSize=8;shadow=0;strokeWidth=1;" edge="1" parent="1">
          <mxGeometry x="0.3778" relative="1" as="geometry">
            <mxPoint x="90" y="560" as="targetPoint" />
            <mxPoint x="310" y="560" as="sourcePoint" />
            <mxPoint as="offset" />
            <Array as="points">
              <mxPoint x="170" y="560" />
            </Array>
          </mxGeometry>
        </mxCell>
        <mxCell id="lYFfkbvWak5rd_vfTRGr-66" value="&lt;font color=&quot;#000000&quot;&gt;ボタン押下&lt;/font&gt;" style="text;html=1;resizable=0;autosize=1;align=center;verticalAlign=middle;points=[];fillColor=none;strokeColor=none;rounded=0;shadow=0;fontFamily=Helvetica;fontSize=12;fontColor=#FF0000;" vertex="1" parent="1">
          <mxGeometry x="100" y="420" width="80" height="20" as="geometry" />
        </mxCell>
        <mxCell id="lYFfkbvWak5rd_vfTRGr-69" value="ログイン画面表示" style="text;html=1;resizable=0;autosize=1;align=center;verticalAlign=middle;points=[];fillColor=none;strokeColor=none;rounded=0;shadow=0;fontFamily=Helvetica;fontSize=12;fontColor=#000000;" vertex="1" parent="1">
          <mxGeometry x="90" y="460" width="110" height="20" as="geometry" />
        </mxCell>
        <mxCell id="lYFfkbvWak5rd_vfTRGr-73" value="" style="points=[];perimeter=orthogonalPerimeter;rounded=0;shadow=0;strokeWidth=1;" vertex="1" parent="1">
          <mxGeometry x="435" y="590" width="10" height="220" as="geometry" />
        </mxCell>
        <mxCell id="lYFfkbvWak5rd_vfTRGr-74" value="" style="endArrow=none;dashed=1;html=1;rounded=0;entryX=0.5;entryY=1;entryDx=0;entryDy=0;" edge="1" parent="1" target="lYFfkbvWak5rd_vfTRGr-73">
          <mxGeometry width="50" height="50" relative="1" as="geometry">
            <mxPoint x="440" y="880" as="sourcePoint" />
            <mxPoint x="440" y="120" as="targetPoint" />
          </mxGeometry>
        </mxCell>
      </root>
    </mxGraphModel>
  </diagram>
</mxfile>
